<?xml version="1.0" standalone="no"?><!DOCTYPE svg PUBLIC "-//W3C//DTD SVG 1.1//EN" "http://www.w3.org/Graphics/SVG/1.1/DTD/svg11.dtd"><svg class="icon" width="200px" height="200.00px" viewBox="0 0 1024 1024" version="1.1" xmlns="http://www.w3.org/2000/svg"><path d="M602.026667 855.68c49.706667 0 74.453333-32.853333 74.453333-98.986667V533.333333H343.466667v228.266667c0 62.72 26.026667 94.08 78.506666 94.08h15.573334v49.493333H116.266667v-49.493333h15.573333q74.666667 0 74.453333-94.08V257.28q0-88.96-74.453333-88.96h-15.573333V118.826667h321.28v49.493333h-15.573334C366.933333 165.12 341.333333 194.773333 343.466667 257.28v202.88h333.013333V262.4c2.773333-65.92-24.746667-97.28-82.133333-94.08h-7.893334V118.826667h321.28v49.493333h-19.626666q-77.44-4.693333-74.453334 88.96V761.6c-2.56 66.133333 23.68 97.28 78.506667 94.08h15.573333v49.493333H586.453333v-49.493333zM907.733333 915.84H586.453333a10.666667 10.666667 0 0 1-10.666666-10.666667v-49.493333a10.666667 10.666667 0 0 1 10.666666-10.666667h15.573334c27.52 0 64-9.173333 64-88.32v-211.84H354.133333V761.6c0 74.666667 38.613333 83.413333 67.84 83.413333h15.573334a10.666667 10.666667 0 0 1 10.666666 10.666667v49.493333a10.666667 10.666667 0 0 1-10.666666 10.666667H116.266667a10.666667 10.666667 0 0 1-10.666667-10.666667v-49.493333a10.666667 10.666667 0 0 1 10.666667-10.666667h15.573333c27.52 0 64-8.746667 64-83.413333V257.28c0-70.186667-36.266667-78.293333-64-78.293333h-15.573333a10.666667 10.666667 0 0 1-10.666667-10.666667V118.826667a10.666667 10.666667 0 0 1 10.666667-10.666667h321.28a10.666667 10.666667 0 0 1 10.666666 10.666667v49.493333a10.666667 10.666667 0 0 1-10.666666 10.666667h-15.573334a64 64 0 0 0-50.773333 14.08 82.773333 82.773333 0 0 0-17.066667 64v192h311.68V262.4a88.96 88.96 0 0 0-18.346666-68.48 66.773333 66.773333 0 0 0-52.693334-14.933333h-8.32a10.666667 10.666667 0 0 1-10.666666-10.666667V118.826667a10.666667 10.666667 0 0 1 10.666666-10.666667h321.28a10.666667 10.666667 0 0 1 10.666667 10.666667v49.493333a10.666667 10.666667 0 0 1-10.666667 10.666667h-19.626666a58.453333 58.453333 0 0 0-46.72 13.013333 85.333333 85.333333 0 0 0-17.066667 64v505.6a90.666667 90.666667 0 0 0 18.346667 70.4 61.226667 61.226667 0 0 0 48.853333 13.866667h16.213333a10.666667 10.666667 0 0 1 10.666667 10.666666v49.493334a10.666667 10.666667 0 0 1-10.666667 9.813333z m-310.4-21.333333h299.733334v-28.16h-4.906667a81.92 81.92 0 0 1-64-20.053334 110.08 110.08 0 0 1-24.533333-85.333333V257.28a103.04 103.04 0 0 1 23.466666-80.426667 78.72 78.72 0 0 1 62.293334-19.2h8.32V129.493333H597.333333v28.16a85.333333 85.333333 0 0 1 65.493334 21.333334 108.373333 108.373333 0 0 1 24.533333 83.84v197.546666a10.666667 10.666667 0 0 1-10.666667 10.666667H343.466667a10.88 10.88 0 0 1-10.666667-10.666667v-203.093333a102.186667 102.186667 0 0 1 23.466667-79.573333 83.626667 83.626667 0 0 1 66.133333-20.053334h4.266667V129.493333H128v28.16h4.906667c38.826667 0 85.333333 17.28 85.333333 99.626667V761.6c0 86.613333-46.293333 104.746667-85.333333 104.746667H128v28.16h298.666667v-28.16h-4.906667c-40.746667 0-89.173333-18.133333-89.173333-104.746667V533.333333a10.88 10.88 0 0 1 10.666666-10.666666h333.226667a10.666667 10.666667 0 0 1 10.666667 10.666666v223.36c0 90.666667-46.293333 109.653333-85.333334 109.653334H597.333333z" /></svg>