<?xml version="1.0" standalone="no"?><!DOCTYPE svg PUBLIC "-//W3C//DTD SVG 1.1//EN" "http://www.w3.org/Graphics/SVG/1.1/DTD/svg11.dtd"><svg class="icon" width="200px" height="200.00px" viewBox="0 0 1024 1024" version="1.1" xmlns="http://www.w3.org/2000/svg"><path d="M332.8 960v-89.6H960V960H332.8z m89.6-492.8H960v89.6H422.4V467.2zM332.8 64H960v89.6H332.8V64zM179.968 601.6A317.248 317.248 0 0 0 64 503.04l75.008-46.656 36.352 72.576s59.072-147.456 152.32-196.608a199.68 199.68 0 0 0 4.48 103.04C291.392 444.8 207.36 550.08 179.968 601.6zM108.8 64h134.4v134.4H108.8V64z m134.4 896H108.8v-134.4h134.4V960z" /></svg>